<?xml version="1.0" encoding="UTF-8" standalone="no"?>
<!DOCTYPE svg PUBLIC "-//W3C//DTD SVG 1.1//EN" "http://www.w3.org/Graphics/SVG/1.1/DTD/svg11.dtd">
<svg width="100%" height="100%" viewBox="0 0 4000 4000" version="1.1" xmlns="http://www.w3.org/2000/svg" xmlns:xlink="http://www.w3.org/1999/xlink" xml:space="preserve" xmlns:serif="http://www.serif.com/" style="fill-rule:evenodd;clip-rule:evenodd;stroke-linejoin:round;stroke-miterlimit:2;">
    <rect x="0" y="0" width="4000" height="4000" style="fill:white;"/>
    <g transform="matrix(4.256158,0,0,4.256158,2000,2000)">
        <g transform="matrix(1,0,0,1,-422.916667,-93.75)">
            <clipPath id="_clip1">
                <rect x="0" y="0" width="845.833" height="187.5"/>
            </clipPath>
            <g clip-path="url(#_clip1)">
                <g transform="matrix(4.166667,0,0,4.166667,0,0)">
                    <path d="M0.846,34.425C0.219,32.3 -0.067,30.088 -0,27.873L0,0.173L6.158,0.173L6.158,24.646C6.053,27.814 6.401,30.981 7.192,34.051L0.846,34.425Z" style="fill:rgb(6,167,228);fill-rule:nonzero;"/>
                    <path d="M22.708,34.799C19.447,34.949 16.278,33.666 14.04,31.29C11.97,28.767 10.904,25.565 11.048,22.305C10.906,19.042 11.979,15.84 14.057,13.321C16.291,10.949 19.453,9.666 22.708,9.812C26.362,9.812 29.18,11.068 31.082,13.544C32.918,15.935 33.848,19.386 33.848,23.803L17.019,23.803C17.46,27.758 19.587,30.12 22.708,30.12C24.976,30.12 26.589,29.064 27.785,26.798L33.239,28.155C32.428,30.077 31.084,31.728 29.366,32.912C27.389,34.201 25.067,34.859 22.708,34.799ZM22.708,14.445C19.725,14.445 17.685,16.458 17.108,19.967L27.831,19.967C27.466,16.512 25.548,14.444 22.708,14.444L22.708,14.445Z" style="fill:rgb(6,167,228);fill-rule:nonzero;"/>
                    <path d="M44.474,34.705C42.402,34.795 40.36,34.176 38.687,32.95C37.163,31.696 36.311,29.798 36.387,27.826C36.334,25.615 37.418,23.524 39.255,22.293C41.556,20.89 44.226,20.21 46.918,20.34C48.504,20.333 50.089,20.411 51.667,20.574L51.667,19.732C51.667,16.669 50.039,14.912 47.2,14.912C45.334,14.863 43.571,15.785 42.546,17.345L37.657,14.725C38.549,13.203 39.88,11.985 41.476,11.233C43.432,10.275 45.587,9.788 47.765,9.812C50.945,9.812 53.396,10.656 55.052,12.321C56.799,14.078 57.687,16.776 57.687,20.34L57.687,26.47C57.638,28.97 57.971,31.463 58.674,33.863L52.892,34.425C52.569,33.225 52.318,32.006 52.14,30.776C50.482,33.369 47.547,34.874 44.474,34.705ZM47.341,24.177C44.221,24.177 42.358,25.349 42.358,27.312C42.358,29.275 43.694,30.448 45.932,30.448C48.42,30.565 50.683,28.953 51.387,26.564C51.554,25.842 51.649,25.105 51.67,24.364C50.23,24.243 48.786,24.181 47.341,24.177Z" style="fill:rgb(6,167,228);fill-rule:nonzero;"/>
                    <path d="M64.313,34.237L64.313,10.373L69.437,10.373L69.437,15.427C70.519,12.292 72.587,9.952 76.207,9.952C77.117,9.955 78.02,10.097 78.887,10.373L77.806,16.222C77.126,15.982 76.411,15.857 75.69,15.852C73.198,15.852 71.459,17.584 70.847,20.11C70.575,21.497 70.449,22.908 70.471,24.321L70.471,34.241L64.313,34.237Z" style="fill:rgb(6,167,228);fill-rule:nonzero;"/>
                    <path d="M83.024,34.237L83.024,10.373L88.289,10.373L88.289,14.912C89.738,11.77 92.916,9.765 96.376,9.812C101.359,9.812 104.176,12.994 104.176,18.983L104.176,34.237L98.024,34.237L98.024,20.437C98.024,16.837 96.708,15.383 94.451,15.383C91.395,15.383 89.89,17.535 89.374,19.828C89.199,20.926 89.136,22.039 89.186,23.15L89.186,34.24L83.024,34.237Z" style="fill:rgb(6,167,228);fill-rule:nonzero;"/>
                    <path d="M111.654,34.425C111.027,32.3 110.741,30.088 110.808,27.873L110.808,0.173L116.967,0.173L116.967,24.646C116.862,27.814 117.21,30.981 118.001,34.051L111.654,34.425Z" style="fill:rgb(6,167,228);fill-rule:nonzero;"/>
                    <rect x="0" y="0" width="203" height="45" style="fill:none;fill-rule:nonzero;"/>
                    <g>
                        <clipPath id="_clip2">
                            <rect x="0" y="0" width="203" height="45"/>
                        </clipPath>
                        <g clip-path="url(#_clip2)">
                            <rect x="123.891" y="10.373" width="6.159" height="23.864" style="fill:rgb(6,167,228);fill-rule:nonzero;"/>
                            <path d="M145.409,44.999C141.353,44.999 138.377,44.414 136.309,43.209C134.469,42.196 133.233,40.348 132.997,38.261L138.874,37.091C138.886,38.209 139.531,39.229 140.537,39.718C142.053,40.448 143.729,40.784 145.409,40.695C149.709,40.695 151.662,38.9 151.662,37.233C151.662,35.672 150.41,34.846 148.041,34.846L141.084,34.846C139.619,34.939 138.169,34.486 137.017,33.576C136.079,32.697 135.572,31.45 135.63,30.166C135.63,28.676 136.282,27.451 138.122,25.487L138.639,24.925C136.529,23.388 135.271,20.936 135.253,18.325C135.229,15.931 136.307,13.655 138.174,12.157C140.229,10.574 142.768,9.745 145.361,9.812C147.268,9.812 149.144,10.293 150.815,11.212L153.965,7.706L158.055,10.606L154.297,14.819C155.045,15.943 155.453,17.259 155.472,18.609C155.508,20.993 154.426,23.261 152.551,24.733C150.485,26.292 147.95,27.103 145.363,27.033C144.607,27.045 143.851,26.983 143.107,26.846L141.932,28.156C141.459,28.674 141.274,29.002 141.274,29.325C141.274,29.677 141.59,29.887 142.12,29.887L148.89,29.887C151.908,29.887 154.223,30.546 155.772,31.846C157.119,32.984 157.874,34.676 157.823,36.438C157.853,38.786 156.758,41.012 154.879,42.421C153.726,43.29 152.415,43.928 151.02,44.301C149.191,44.791 147.303,45.026 145.409,44.999ZM145.361,14.206C145.334,14.205 145.307,14.205 145.28,14.205C143.002,14.205 141.129,16.079 141.129,18.356C141.129,18.392 141.129,18.428 141.13,18.464C141.129,18.5 141.129,18.536 141.129,18.572C141.129,20.849 143.002,22.723 145.28,22.723C145.307,22.723 145.334,22.723 145.361,22.722C145.389,22.723 145.418,22.723 145.446,22.723C147.724,22.723 149.598,20.849 149.598,18.571C149.598,18.537 149.598,18.502 149.597,18.468C149.598,18.431 149.598,18.394 149.598,18.357C149.598,16.079 147.724,14.205 145.446,14.205C145.418,14.205 145.389,14.205 145.361,14.206Z" style="fill:rgb(6,167,228);fill-rule:nonzero;"/>
                            <path d="M161.488,34.238L161.488,0.173L167.647,0.173L167.647,13.837C169.124,11.282 171.89,9.734 174.84,9.813C179.823,9.813 182.64,12.995 182.64,18.984L182.64,34.238L176.488,34.238L176.488,20.438C176.488,16.838 175.172,15.384 172.915,15.384C169.859,15.384 168.354,17.536 167.837,19.829C167.707,20.492 167.644,21.166 167.649,21.841L167.649,34.241L161.488,34.238Z" style="fill:rgb(6,167,228);fill-rule:nonzero;"/>
                            <path d="M196.418,15.427L196.418,26.236C196.418,28.341 197.593,29.699 199.662,29.699C200.629,29.691 201.586,29.5 202.483,29.137L203.001,34.191C201.394,34.543 199.756,34.731 198.111,34.752C192.564,34.752 190.26,31.804 190.26,25.533L190.26,15.427L186.404,15.427L186.404,10.373L190.259,10.373L190.259,4.525L196.418,3.308L196.418,10.373L202.53,10.373L202.53,15.427L196.418,15.427Z" style="fill:rgb(6,167,228);fill-rule:nonzero;"/>
                            <path d="M130.963,3.917C130.942,6.072 129.164,7.834 127.008,7.834C126.995,7.834 126.983,7.834 126.97,7.834C124.801,7.854 122.999,6.086 122.978,3.917C122.999,1.748 124.801,-0.02 126.97,0C126.983,-0 126.995,-0 127.008,-0C129.164,-0 130.942,1.762 130.963,3.917" style="fill:rgb(246,202,51);fill-rule:nonzero;"/>
                        </g>
                    </g>
                </g>
            </g>
        </g>
    </g>
</svg>
